<svg id="レイヤー_1" data-name="レイヤー 1" xmlns="http://www.w3.org/2000/svg" viewBox="0 0 563.3 104.5"><defs><style>.cls-1{fill:#fff;}.cls-2{fill:#32cbff;stroke:#32cbff;stroke-linecap:round;stroke-miterlimit:10;}</style></defs><title>ShindanMakerLogo_Ja</title><path class="cls-1" d="M39.4,26.4c1.9,0,2.8.8,2.8,2.5s-.9,2.5-2.8,2.5H14.8c-1.9,0-2.8-.8-2.8-2.5s.9-2.5,2.8-2.5Zm-5.3,38c3,0,4.6,1.5,4.6,4.6V87.3c0,3-1.5,4.6-4.6,4.6H19c-3.1,0-4.6-1.5-4.6-4.6V69c0-3,1.5-4.6,4.6-4.6Zm1.1-50.3c1.9,0,2.8.8,2.8,2.5s-.9,2.5-2.8,2.5H18c-1.9,0-2.8-.8-2.8-2.5s.9-2.5,2.8-2.5Zm0,24.6c1.9,0,2.8.8,2.8,2.5s-.9,2.5-2.8,2.5H18c-1.9,0-2.8-.8-2.8-2.5s.9-2.5,2.8-2.5Zm0,12c1.9,0,2.8.8,2.8,2.5s-.9,2.5-2.8,2.5H18c-1.9,0-2.8-.8-2.8-2.5s.9-2.5,2.8-2.5ZM19.4,70.4V85.9a1.59,1.59,0,0,0,1.8,1.8H32a1.59,1.59,0,0,0,1.8-1.8V70.4A1.59,1.59,0,0,0,32,68.6H21.1C20,68.6,19.4,69.2,19.4,70.4Zm52-55.6a88.09,88.09,0,0,0,20,15.5c1.9,1.2,2.6,2.7,2.1,4.6-1.4,2.4-3.6,2.6-6.7.7A137.46,137.46,0,0,1,68.9,20.1c-.7-.9-1.5-.8-2.5.4A67.59,67.59,0,0,1,48.5,36c-2.4,1.4-4.1,1.3-5.3-.4a2.79,2.79,0,0,1,1.4-3.5A63.05,63.05,0,0,0,62.2,15.9C64.8,11.6,67.9,11.3,71.4,14.8ZM81.3,45c1.9,1.4,2,3.2.4,5.3A65.7,65.7,0,0,1,50.4,71.4c-2.6.7-4.1.2-4.6-1.4-.2-1.6.7-2.8,2.8-3.5,11-3.5,20.4-10.2,28.1-20C78.3,44.6,79.8,44.1,81.3,45ZM73.5,30.6c1.4,1.2,1.4,2.7,0,4.6A61.75,61.75,0,0,1,51.4,52.4c-2.8,1.2-4.6.8-5.3-1-.2-1.4.6-2.6,2.5-3.5A59.63,59.63,0,0,0,69.3,31.4C70.7,29.9,72.1,29.7,73.5,30.6ZM90.8,58.1c1.9,1.4,2.1,3.3.7,5.6Q78.45,85.15,50.7,91.1c-2.6.5-4.1-.2-4.6-2.1,0-1.6.9-2.7,2.8-3.2,17.3-4,29.8-12.5,37.3-25.7C87.3,58.1,88.9,57.4,90.8,58.1Z" transform="translate(0 0)"/><path class="cls-1" d="M34.1,103.8H19c-9.6,0-16.6-7-16.6-16.6V69a17.12,17.12,0,0,1,2.4-8.9,14.39,14.39,0,0,1-1.7-6.9,14.61,14.61,0,0,1,1.2-6,14.61,14.61,0,0,1-1.2-6,14.28,14.28,0,0,1,.3-2.9A14.61,14.61,0,0,1,0,28.9a14.89,14.89,0,0,1,3.4-9.5,13.58,13.58,0,0,1-.3-2.9C3.2,8.3,9.5,2.1,18,2.1H35.2A14.45,14.45,0,0,1,49.5,12.5c1-1.1,2-2.3,2.9-3.5C56.4,2.8,61.5.9,65.1.5s9.2.2,14.8,5.8h0A77.59,77.59,0,0,0,97.1,19.7c.2.1.5.3.7.4a15.83,15.83,0,0,1,7.4,17.6,11.69,11.69,0,0,1-1.4,3.3,15.79,15.79,0,0,1-7.3,6.5c.5.3,1,.6,1.4.9,6.9,5.1,8.4,13.8,3.8,21.4C91.3,87,74.9,98.1,53.2,102.8a.6.6,0,0,0-.4.1,17.12,17.12,0,0,1-10.3-1.1A17.67,17.67,0,0,1,34.1,103.8Zm-7.6-25,.1.1.1-.1V77.3l-.1-.1-.1.1Zm-.2-64.4h.6c-.1-.4-.2-.7-.3-1C26.5,13.7,26.4,14.1,26.3,14.4Z" transform="translate(0 0)"/><path class="cls-1" d="M184.5,15.5c.2,1.6-.7,2.7-2.8,3.2a158.41,158.41,0,0,1-19.3,2.8,2.61,2.61,0,0,0-2.5,2.8V36.6h23.2c1.9,0,2.8.8,2.8,2.5s-.9,2.5-2.8,2.5h-5.6V89.8c0,1.9-.8,2.8-2.5,2.8s-2.5-.9-2.5-2.8V41.5H159.8V54.2c0,15.2-3.3,27.2-9.8,35.9-1.2,1.4-2.5,1.6-3.9.7a3,3,0,0,1-.7-2.8H111c-3.1,0-4.6-1.5-4.6-4.6V16.6c0-1.9.8-2.8,2.5-2.8s2.5.9,2.5,2.8V81.3a1.59,1.59,0,0,0,1.8,1.8h35.5A45.64,45.64,0,0,0,154,66.6c.7-6.1,1-10.2,1-12.3v-31q0-5.7,4.2-6.3a129,129,0,0,0,22.1-3.9C183.4,12.8,184.5,13.6,184.5,15.5Zm-56.3-.7c0-1.9.8-2.8,2.5-2.8s2.5.9,2.5,2.8V42.2h14.4c1.9,0,2.8.8,2.8,2.5s-.9,2.5-2.8,2.5H133.2v3.5a99.23,99.23,0,0,1,15.1,14.1,2.75,2.75,0,0,1-.4,4.2,3.1,3.1,0,0,1-3.9-.7,150.52,150.52,0,0,0-10.9-12.7V77c0,1.9-.8,2.8-2.5,2.8s-2.5-.9-2.5-2.8V56.3a69,69,0,0,1-12.3,12c-1.6,1.2-2.8,1.2-3.5,0a2,2,0,0,1,1.1-2.8,71.46,71.46,0,0,0,15.1-18.3H115.1c-1.9,0-2.8-.8-2.8-2.5s.9-2.5,2.8-2.5h13V14.8Zm-9.8.7a2.33,2.33,0,0,1,2.5,2.1,101.47,101.47,0,0,1,2.5,17.6c0,1.9-.8,2.8-2.5,2.8-1.4,0-2.2-.8-2.5-2.5a140.1,140.1,0,0,0-1.8-17.6A2.22,2.22,0,0,1,118.4,15.5Zm27.4-.3a2.22,2.22,0,0,1,2.1,2.8A134.94,134.94,0,0,1,144,36.3c-.5,1.6-1.4,2.4-2.8,2.1-1.2-.2-1.6-1-1.4-2.5,1.4-6.8,2.5-12.9,3.2-18.3A2.53,2.53,0,0,1,145.8,15.2Z" transform="translate(0 0)"/><path class="cls-1" d="M175,104.5a14,14,0,0,1-13.6-9.7c-.6.8-1.1,1.7-1.8,2.5a1.76,1.76,0,0,1-.4.5,14.58,14.58,0,0,1-19.7,3,7.63,7.63,0,0,1-1.1-.8H111c-9.6,0-16.6-7-16.6-16.6V16.6c0-8.4,6.2-14.8,14.5-14.8a15.36,15.36,0,0,1,7.4,1.9,14.2,14.2,0,0,1,4.6,0,14.79,14.79,0,0,1,19.9.3,15.38,15.38,0,0,1,6.8-.7,16.05,16.05,0,0,1,6.6,2.6,28.06,28.06,0,0,1,3.1-.8,2.77,2.77,0,0,1,.9-.1,115.45,115.45,0,0,0,20.1-3.5,5.66,5.66,0,0,1,1.8-.3,14.77,14.77,0,0,1,11.8,3.5,14.35,14.35,0,0,1,4.7,10,14.38,14.38,0,0,1-5,12.3,14,14,0,0,1,6.5,12.1,14.06,14.06,0,0,1-8.4,13.1V89.7C189.5,98.1,183.2,104.5,175,104.5Zm21.5-89Z" transform="translate(0 0)"/><path class="cls-1" d="M264.4,15.5c2.1.7,2.9,2.2,2.5,4.6-2.8,9.6-8.2,20.4-16.2,32.3,9.1,6.8,16,12.5,20.7,17.2q2.85,2.85,0,6a4.1,4.1,0,0,1-5.3-.4c-5.2-5.1-11.6-10.9-19.3-17.2q-15.15,18.6-39,28.5c-2.4.9-4,.5-4.9-1.4a3.33,3.33,0,0,1,1.8-4.2,97.13,97.13,0,0,0,21.5-11.6,76.72,76.72,0,0,0,15.5-15.1,299.24,299.24,0,0,0-27.4-17.6,2.85,2.85,0,1,1,2.9-4.9,194.14,194.14,0,0,1,28.5,16.9A126.23,126.23,0,0,0,260.1,18C260.6,16.1,262.1,15.3,264.4,15.5Z" transform="translate(0 0)"/><path class="cls-1" d="M205.7,99a14.88,14.88,0,0,1-13.6-8.5,11.72,11.72,0,0,1-.9-2.4,15.43,15.43,0,0,1,7.4-17.6,10.09,10.09,0,0,1,1.5-.7,87.42,87.42,0,0,0,18.8-10.1c1.5-1.1,2.9-2.2,4.3-3.4-5.2-3.4-10.3-6.5-15-9.1a3.51,3.51,0,0,1-.8-.5,14.92,14.92,0,0,1-5.5-18.6,11.4,11.4,0,0,1,1-1.9,14.92,14.92,0,0,1,18.6-5.5c.1.1.3.1.4.2a181.4,181.4,0,0,1,19.3,10.7,112.65,112.65,0,0,0,7-17.2c.1-.2.1-.4.2-.6,2.6-6.9,9.2-10.9,17-10.2a11,11,0,0,1,2.6.6c7.9,2.6,12.1,10,10.4,18.3-.1.3-.1.7-.2,1a114.68,114.68,0,0,1-11.7,26.1c5.4,4.3,9.8,8.2,13.3,11.6,6.4,6.4,6.6,15.6.5,22.4a10.86,10.86,0,0,1-2.6,2.2,16.09,16.09,0,0,1-19.5-1.4c-.2-.2-.5-.4-.7-.6-2.8-2.8-6.1-5.9-9.8-9.1a112.66,112.66,0,0,1-35.5,23h-.1A15.6,15.6,0,0,1,205.7,99Z" transform="translate(0 0)"/><path class="cls-1" d="M362.9,48.2c2.6,0,3.9,1.2,3.9,3.5s-1.3,3.5-3.9,3.5H312.6A33.65,33.65,0,0,1,301,53.4l-4.9-1.8q-2.4-1.8-1.8-4.2c.7-2.1,2-2.9,3.9-2.5l4.9,1.8a30.36,30.36,0,0,0,9.8,1.4l50,.1Z" transform="translate(0 0)"/><path class="cls-1" d="M362.9,67.2H312.6A44.41,44.41,0,0,1,297,64.7L292,63a15.93,15.93,0,0,1-2.9-1.5,15.53,15.53,0,0,1-6.3-17.3c0-.2.1-.3.1-.5,2.7-8.1,10.1-12.3,18.1-10.3a3.58,3.58,0,0,1,1.1.4l4.9,1.8a18.17,18.17,0,0,0,5.8.7h49.9c9.2,0,15.9,6.5,15.9,15.5S372,67.2,362.9,67.2Zm0-7Z" transform="translate(0 0)"/><path class="cls-1" d="M414.4,15.5c.2-1.9,1.4-2.8,3.5-2.8,2.3.2,3.4,1.4,3.2,3.5l-1,9.1h27.8a10.2,10.2,0,0,1,7.7,3.2,8.75,8.75,0,0,1,2.5,6.3,189.87,189.87,0,0,1-4.6,41.8c-1.4,5.4-3.3,8.8-5.6,10.2q-2.1,1.8-6.3,1.8a35.92,35.92,0,0,1-8.1-1A70.21,70.21,0,0,1,420.1,83a3.06,3.06,0,0,1,2.1-5.7c7,2.8,12.7,4.3,16.9,4.6a6.42,6.42,0,0,0,4.9-1.8c1.4-.9,2.9-5.1,4.6-12.7,2.1-12.2,2.9-22.5,2.5-30.9-.2-3.3-1.9-4.9-4.9-4.9H419.5c-2.3,18.8-9,33.6-20,44.6a71,71,0,0,1-12.7,10.2c-1.9.7-3.3.5-4.2-.7a3.43,3.43,0,0,1,1-4.2A73.47,73.47,0,0,0,394.8,72c9.4-9.1,15.3-22.6,17.9-40.4H388.4c-1.6,0-2.5-.9-2.5-2.8,0-2.3.8-3.5,2.5-3.5h25Z" transform="translate(0 0)"/><path class="cls-1" d="M441.5,100.6a44.21,44.21,0,0,1-11-1.4A90.81,90.81,0,0,1,415,93.9a6,6,0,0,1-1.5-.9,16.2,16.2,0,0,1-6.1-7.7,85.19,85.19,0,0,1-14.3,11.4,15.05,15.05,0,0,1-2.2,1.1c-6.8,2.5-13.6.8-17.8-4.5a9.7,9.7,0,0,1-1.6-2.8,15.29,15.29,0,0,1,4.4-18.1c.3-.2.6-.5.9-.7a73.83,73.83,0,0,0,9.6-8.1l.1-.1c4.9-4.8,8.8-11.5,11.4-19.8h-9.3a14.39,14.39,0,0,1-14.5-14.8c0-10.2,7.3-15.5,14.5-15.5h14.2A15.07,15.07,0,0,1,418.1.7a4.87,4.87,0,0,1,1.2.1,15.74,15.74,0,0,1,10.8,5.5,14.75,14.75,0,0,1,3.1,7.1h14.9a22.44,22.44,0,0,1,16.2,6.7,20.45,20.45,0,0,1,6,14.8,207.47,207.47,0,0,1-4.8,44.4,4.33,4.33,0,0,0-.1.5c-2.1,8.2-5.5,13.8-10.3,17A24.36,24.36,0,0,1,441.5,100.6ZM421.8,65.3a13.55,13.55,0,0,1,2,.2,12.76,12.76,0,0,1,2.8.7,82.27,82.27,0,0,0,9.2,3.1c.3-1.1.6-2.4,1-4.1a143.74,143.74,0,0,0,2.3-21.5h-9.6A90.5,90.5,0,0,1,421.8,65.3Z" transform="translate(0 0)"/><path class="cls-1" d="M547.5,48.2c2.6,0,3.9,1.2,3.9,3.5s-1.3,3.5-3.9,3.5H497.2a33.65,33.65,0,0,1-11.6-1.8l-4.9-1.8q-2.4-1.8-1.8-4.2c.7-2.1,2-2.9,3.9-2.5l4.9,1.8a30.36,30.36,0,0,0,9.8,1.4l50,.1Z" transform="translate(0 0)"/><path class="cls-1" d="M547.5,67.2H497.2a45.38,45.38,0,0,1-15.7-2.5l-4.9-1.8a15.93,15.93,0,0,1-2.9-1.5,15.53,15.53,0,0,1-6.3-17.3c0-.2.1-.3.2-.5,2.7-8.1,10.2-12.3,18.1-10.3a3.58,3.58,0,0,1,1.1.4l4.9,1.8a18.17,18.17,0,0,0,5.8.7h49.9c9.2,0,15.9,6.5,15.9,15.5S556.7,67.2,547.5,67.2Zm0-7Z" transform="translate(0 0)"/><path class="cls-2" d="M39.4,26.4c1.9,0,2.8.8,2.8,2.5s-.9,2.5-2.8,2.5H14.8c-1.9,0-2.8-.8-2.8-2.5s.9-2.5,2.8-2.5Zm-5.3,38c3,0,4.6,1.5,4.6,4.6V87.3c0,3-1.5,4.6-4.6,4.6H19c-3.1,0-4.6-1.5-4.6-4.6V69c0-3,1.5-4.6,4.6-4.6Zm1.1-50.3c1.9,0,2.8.8,2.8,2.5s-.9,2.5-2.8,2.5H18c-1.9,0-2.8-.8-2.8-2.5s.9-2.5,2.8-2.5Zm0,24.6c1.9,0,2.8.8,2.8,2.5s-.9,2.5-2.8,2.5H18c-1.9,0-2.8-.8-2.8-2.5s.9-2.5,2.8-2.5Zm0,12c1.9,0,2.8.8,2.8,2.5s-.9,2.5-2.8,2.5H18c-1.9,0-2.8-.8-2.8-2.5s.9-2.5,2.8-2.5ZM19.4,70.4V85.9a1.59,1.59,0,0,0,1.8,1.8H32a1.59,1.59,0,0,0,1.8-1.8V70.4A1.59,1.59,0,0,0,32,68.6H21.1C20,68.6,19.4,69.2,19.4,70.4Zm52-55.6a88.09,88.09,0,0,0,20,15.5c1.9,1.2,2.6,2.7,2.1,4.6-1.4,2.4-3.6,2.6-6.7.7A137.46,137.46,0,0,1,68.9,20.1c-.7-.9-1.5-.8-2.5.4A67.59,67.59,0,0,1,48.5,36c-2.4,1.4-4.1,1.3-5.3-.4a2.79,2.79,0,0,1,1.4-3.5A63.05,63.05,0,0,0,62.2,15.9C64.8,11.6,67.9,11.3,71.4,14.8ZM81.3,45c1.9,1.4,2,3.2.4,5.3A65.7,65.7,0,0,1,50.4,71.4c-2.6.7-4.1.2-4.6-1.4-.2-1.6.7-2.8,2.8-3.5,11-3.5,20.4-10.2,28.1-20C78.3,44.6,79.8,44.1,81.3,45ZM73.5,30.6c1.4,1.2,1.4,2.7,0,4.6A61.75,61.75,0,0,1,51.4,52.4c-2.8,1.2-4.6.8-5.3-1-.2-1.4.6-2.6,2.5-3.5A59.63,59.63,0,0,0,69.3,31.4C70.7,29.9,72.1,29.7,73.5,30.6ZM90.8,58.1c1.9,1.4,2.1,3.3.7,5.6Q78.45,85.15,50.7,91.1c-2.6.5-4.1-.2-4.6-2.1,0-1.6.9-2.7,2.8-3.2,17.3-4,29.8-12.5,37.3-25.7C87.3,58.1,88.9,57.4,90.8,58.1Z" transform="translate(0 0)"/><path class="cls-2" d="M34.1,92.8H19c-3.6,0-5.6-2-5.6-5.6V69c0-3.6,2-5.6,5.6-5.6H34.1c3.6,0,5.6,2,5.6,5.6V87.3C39.7,90.8,37.7,92.8,34.1,92.8ZM19,65.4c-2.5,0-3.6,1.1-3.6,3.6V87.3c0,2.5,1.1,3.6,3.6,3.6H34.1c2.5,0,3.6-1.1,3.6-3.6V69c0-2.5-1.1-3.6-3.6-3.6ZM49.3,92.2c-2.9,0-3.9-1.8-4.1-3V89c0-1.5.6-3.4,3.6-4.1C65.7,81,78,72.5,85.3,59.7c1.9-3.4,4.4-3.1,5.8-2.5l.2.1c2.3,1.7,2.6,4.2,1,6.9C83.5,78.7,69.6,88.1,50.9,92.1A9.15,9.15,0,0,1,49.3,92.2Zm-2.2-3.3c.2.6.6,1.7,3.4,1.2,18.1-3.9,31.6-13,40.1-27,1.4-2.3.6-3.5-.3-4.2-.9-.3-2.1-.3-3.2,1.7C79.4,74,66.7,82.8,49.1,86.8,47.4,87.2,47.1,88.1,47.1,88.9ZM32,88.6H21.1a2.58,2.58,0,0,1-2.8-2.8V70.4a2.58,2.58,0,0,1,2.8-2.8H32a2.58,2.58,0,0,1,2.8,2.8V85.9A2.5,2.5,0,0,1,32,88.6Zm-10.9-19c-.6,0-.8.1-.8.8V85.9c0,.6.1.8.8.8H32c.6,0,.8-.1.8-.8V70.4c0-.6-.1-.8-.8-.8Zm27.2,3.1a3.26,3.26,0,0,1-3.5-2.4v-.1c-.2-1.2,0-3.5,3.5-4.6A57.44,57.44,0,0,0,75.9,45.8c2.5-2.9,4.6-2.5,5.9-1.6h.1a4.53,4.53,0,0,1,1.9,2.9,5,5,0,0,1-1.3,3.8A66.29,66.29,0,0,1,50.7,72.3,8,8,0,0,1,48.3,72.7Zm-1.6-2.9c.1.5.5,1.4,3.3.6A64.19,64.19,0,0,0,80.8,49.6a3.23,3.23,0,0,0,.9-2.3,2.43,2.43,0,0,0-1.1-1.5c-.4-.3-1.4-.9-3.2,1.2A57.7,57.7,0,0,1,48.9,67.4C46.6,68.2,46.7,69.3,46.7,69.8ZM35.2,56.6H18c-2.4,0-3.8-1.3-3.8-3.5s1.4-3.5,3.8-3.5H35.2c2.4,0,3.8,1.3,3.8,3.5S37.6,56.6,35.2,56.6ZM18,51.7c-1.7,0-1.8.7-1.8,1.5s.1,1.5,1.8,1.5H35.2c1.7,0,1.8-.7,1.8-1.5s-.1-1.5-1.8-1.5Zm30.6,2.4a4.15,4.15,0,0,1-1.6-.3,3.6,3.6,0,0,1-1.9-2.1l-.1-.2c-.2-1.3.1-3.1,3-4.6A59.84,59.84,0,0,0,68.4,30.7l.1-.1c2.3-2.3,4.4-1.5,5.5-.8l.1.1c1.1.9,2.5,2.8.2,5.9A62,62,0,0,1,51.8,53.3,7.15,7.15,0,0,1,48.6,54.1Zm-1.5-3a1.45,1.45,0,0,0,.8.9,4.17,4.17,0,0,0,3.1-.5A61.91,61.91,0,0,0,72.8,34.6c1.5-2,.6-2.8.2-3.1-.8-.5-1.7-.8-3,.5A61.52,61.52,0,0,1,49,48.8C47,49.7,47,50.7,47.1,51.1ZM35.2,44.6H18c-2.4,0-3.8-1.3-3.8-3.5s1.4-3.5,3.8-3.5H35.2c2.4,0,3.8,1.3,3.8,3.5S37.6,44.6,35.2,44.6ZM18,39.7c-1.7,0-1.8.7-1.8,1.5s.1,1.5,1.8,1.5H35.2c1.7,0,1.8-.7,1.8-1.5s-.1-1.5-1.8-1.5Zm27.7-1.8a4,4,0,0,1-3.2-1.7l-.1-.3a3.89,3.89,0,0,1,1.8-4.7A63.88,63.88,0,0,0,61.5,15.3c1.4-2.3,3.1-3.6,4.9-3.8s3.8.7,5.8,2.7h0A88.92,88.92,0,0,0,92,29.5c2.9,1.8,3,4.1,2.6,5.7l-.1.3a5,5,0,0,1-2.9,2.3c-1.5.4-3.2-.1-5.1-1.3A140.65,140.65,0,0,1,68.4,20.9l-.1-.1c-.1-.2-.2-.2-.2-.2a2.35,2.35,0,0,0-.6.6A66.32,66.32,0,0,1,49.3,36.9,9.36,9.36,0,0,1,45.7,37.9Zm-1.5-2.8c.4.5,1.3,1.5,3.9,0A65.61,65.61,0,0,0,65.8,19.9,2.91,2.91,0,0,1,68,18.6a2.09,2.09,0,0,1,1.7,1A135.45,135.45,0,0,0,87.5,34.9a5,5,0,0,0,3.6,1,2.75,2.75,0,0,0,1.6-1.3c.3-1.4-.2-2.4-1.7-3.3-6.6-3.5-13.4-8.8-20.2-15.6-1.5-1.5-2.9-2.2-4.1-2.1s-2.4,1.1-3.5,3A65.29,65.29,0,0,1,45.3,33.1C44,33.7,44,34.4,44.2,35.1Zm-4.8-2.8H14.8c-2.4,0-3.8-1.3-3.8-3.5s1.4-3.5,3.8-3.5H39.4c2.4,0,3.8,1.3,3.8,3.5S41.8,32.3,39.4,32.3ZM14.8,27.4c-1.7,0-1.8.7-1.8,1.5s.1,1.5,1.8,1.5H39.4c1.7,0,1.8-.7,1.8-1.5s-.1-1.5-1.8-1.5ZM35.2,20H18c-2.4,0-3.8-1.3-3.8-3.5S15.6,13,18,13H35.2c2.4,0,3.8,1.3,3.8,3.5S37.6,20,35.2,20ZM18,15.1c-1.7,0-1.8.7-1.8,1.5s.1,1.5,1.8,1.5H35.2c1.7,0,1.8-.7,1.8-1.5s-.1-1.5-1.8-1.5Z" transform="translate(0 0)"/><path class="cls-2" d="M184.5,15.5c.2,1.6-.7,2.7-2.8,3.2a158.41,158.41,0,0,1-19.3,2.8,2.61,2.61,0,0,0-2.5,2.8V36.6h23.2c1.9,0,2.8.8,2.8,2.5s-.9,2.5-2.8,2.5h-5.6V89.8c0,1.9-.8,2.8-2.5,2.8s-2.5-.9-2.5-2.8V41.5H159.8V54.2c0,15.2-3.3,27.2-9.8,35.9-1.2,1.4-2.5,1.6-3.9.7a3,3,0,0,1-.7-2.8H111c-3.1,0-4.6-1.5-4.6-4.6V16.6c0-1.9.8-2.8,2.5-2.8s2.5.9,2.5,2.8V81.3a1.59,1.59,0,0,0,1.8,1.8h35.5A45.64,45.64,0,0,0,154,66.6c.7-6.1,1-10.2,1-12.3v-31q0-5.7,4.2-6.3a129,129,0,0,0,22.1-3.9C183.4,12.8,184.5,13.6,184.5,15.5Zm-56.3-.7c0-1.9.8-2.8,2.5-2.8s2.5.9,2.5,2.8V42.2h14.4c1.9,0,2.8.8,2.8,2.5s-.9,2.5-2.8,2.5H133.2v3.5a99.23,99.23,0,0,1,15.1,14.1,2.75,2.75,0,0,1-.4,4.2,3.1,3.1,0,0,1-3.9-.7,150.52,150.52,0,0,0-10.9-12.7V77c0,1.9-.8,2.8-2.5,2.8s-2.5-.9-2.5-2.8V56.3a69,69,0,0,1-12.3,12c-1.6,1.2-2.8,1.2-3.5,0a2,2,0,0,1,1.1-2.8,71.46,71.46,0,0,0,15.1-18.3H115.1c-1.9,0-2.8-.8-2.8-2.5s.9-2.5,2.8-2.5h13V14.8Zm-9.8.7a2.33,2.33,0,0,1,2.5,2.1,101.47,101.47,0,0,1,2.5,17.6c0,1.9-.8,2.8-2.5,2.8-1.4,0-2.2-.8-2.5-2.5a140.1,140.1,0,0,0-1.8-17.6A2.22,2.22,0,0,1,118.4,15.5Zm27.4-.3a2.22,2.22,0,0,1,2.1,2.8A134.94,134.94,0,0,1,144,36.3c-.5,1.6-1.4,2.4-2.8,2.1-1.2-.2-1.6-1-1.4-2.5,1.4-6.8,2.5-12.9,3.2-18.3A2.53,2.53,0,0,1,145.8,15.2Z" transform="translate(0 0)"/><path class="cls-2" d="M175,93.5c-2.2,0-3.5-1.4-3.5-3.8V42.5H160.8V54.2c0,15.4-3.4,27.6-10,36.5a3.65,3.65,0,0,1-5.2.9l-.1-.1a3.9,3.9,0,0,1-1.1-2.5H111c-3.6,0-5.6-2-5.6-5.6V16.6c0-2.4,1.3-3.8,3.5-3.8s3.5,1.4,3.5,3.8V42.2a4,4,0,0,1,2.9-1h12V14.8c0-2.4,1.3-3.8,3.5-3.8s3.5,1.4,3.5,3.8V41.2h13.4c2.4,0,3.8,1.3,3.8,3.5s-1.4,3.5-3.8,3.5H134.3v2a96.58,96.58,0,0,1,14.9,13.9c1.5,2.1,1.4,4.1-.5,5.6l-.2.1a4,4,0,0,1-5-.9l-.1-.1A135.08,135.08,0,0,0,134.3,58V77c0,2.4-1.3,3.8-3.5,3.8s-3.5-1.4-3.5-3.8V59a65.6,65.6,0,0,1-10.7,10,4,4,0,0,1-3.2,1,3.55,3.55,0,0,1-.9-.4V81.2c0,.6.1.8.8.8h34.9a45.1,45.1,0,0,0,4.9-15.6c.7-6,1-10.1,1-12.2v-31c0-5.3,2.8-6.9,5-7.3A129,129,0,0,0,181.2,12h.1a4,4,0,0,1,3.2.8,3.25,3.25,0,0,1,1,2.6c.2,1.3-.1,3.4-3.6,4.2a159.3,159.3,0,0,1-19.5,2.8,1.55,1.55,0,0,0-1.5,1.8V35.5h22.2c2.4,0,3.8,1.3,3.8,3.5s-1.4,3.5-3.8,3.5h-4.6V89.7C178.5,92.1,177.2,93.5,175,93.5Zm-16.1-53h14.7V89.7c0,1.7.7,1.8,1.5,1.8s1.5-.1,1.5-1.8V40.5h6.6c1.7,0,1.8-.7,1.8-1.5s-.1-1.5-1.8-1.5H159V24.3a3.57,3.57,0,0,1,3.3-3.8,155.51,155.51,0,0,0,19.3-2.8c2.2-.5,2.1-1.5,2-2v-.1c0-.6-.1-1-.4-1.2a1.94,1.94,0,0,0-1.6-.3A130.18,130.18,0,0,1,159.4,18c-1.4.2-3.3,1-3.3,5.3V54.2c0,2.2-.4,6.2-1.1,12.4a45.88,45.88,0,0,1-5.4,16.9l-.3.5H113.2a2.58,2.58,0,0,1-2.8-2.8V16.6c0-1.7-.7-1.8-1.5-1.8s-1.5.1-1.5,1.8V83.4c0,2.5,1.1,3.6,3.6,3.6h35.7l-.2,1.2a1.81,1.81,0,0,0,.4,1.8c.8.5,1.5.6,2.5-.6,6.4-8.4,9.6-20.3,9.6-35.2l-.1-13.7Zm-29.7,13V77c0,1.7.7,1.8,1.5,1.8s1.5-.1,1.5-1.8V53.2l1.7,1.7a122.64,122.64,0,0,1,10.9,12.7,2,2,0,0,0,2.6.5c.7-.6,1.1-1.4.1-2.8a107.44,107.44,0,0,0-14.9-13.9l-.4-.3v-5h15.4c1.7,0,1.8-.7,1.8-1.5s-.1-1.5-1.8-1.5H132.2V14.8c0-1.7-.7-1.8-1.5-1.8s-1.5.1-1.5,1.8V43.2h-14c-1.7,0-1.8.7-1.8,1.5s.1,1.5,1.8,1.5h15.1l-.9,1.5a73.19,73.19,0,0,1-15.3,18.5l-.1.1c-.8.5-.9.9-.7,1.5.2.3.3.3.4.3s.6,0,1.6-.7a63.59,63.59,0,0,0,12.1-11.8Zm-16.8-6.3V65a1.76,1.76,0,0,0,.5-.4,74,74,0,0,0,14-16.5H115.3A3.63,3.63,0,0,1,112.4,47.2Zm29.4-7.8a1.7,1.7,0,0,1-.7-.1c-.8-.2-2.7-.8-2.2-3.6,1.4-6.8,2.5-12.9,3.2-18.2a3.51,3.51,0,0,1,3.8-3.3h.1a3.2,3.2,0,0,1,3,3.9,136.39,136.39,0,0,1-3.9,18.4C144.4,38.9,142.9,39.4,141.8,39.4Zm4-23.2c-1.1,0-1.6.5-1.8,1.6-.7,5.4-1.8,11.5-3.2,18.3-.2,1.1.2,1.2.6,1.3.6.1,1.2.1,1.7-1.4a148.73,148.73,0,0,0,3.8-18.1C147.1,16.8,146.8,16.3,145.8,16.2ZM120.9,39c-1.1,0-3-.4-3.5-3.3a140.1,140.1,0,0,0-1.8-17.6V18a3.1,3.1,0,0,1,2.6-3.4h.2a3.3,3.3,0,0,1,3.5,2.9,101.33,101.33,0,0,1,2.5,17.7C124.3,37.6,123.1,39,120.9,39Zm-3.3-21.1c.9,6.1,1.5,12,1.8,17.6.2,1.4.9,1.5,1.5,1.5s1.5-.1,1.5-1.8A110.88,110.88,0,0,0,120,17.9c-.2-1-.5-1.3-1.4-1.4C118.1,16.6,117.7,16.9,117.6,17.9Z" transform="translate(0 0)"/><path class="cls-2" d="M264.4,15.5c2.1.7,2.9,2.2,2.5,4.6-2.8,9.6-8.2,20.4-16.2,32.3,9.1,6.8,16,12.5,20.7,17.2q2.85,2.85,0,6a4.1,4.1,0,0,1-5.3-.4c-5.2-5.1-11.6-10.9-19.3-17.2q-15.15,18.6-39,28.5c-2.4.9-4,.5-4.9-1.4a3.33,3.33,0,0,1,1.8-4.2,97.13,97.13,0,0,0,21.5-11.6,76.72,76.72,0,0,0,15.5-15.1,299.24,299.24,0,0,0-27.4-17.6,2.85,2.85,0,1,1,2.9-4.9,194.14,194.14,0,0,1,28.5,16.9A126.23,126.23,0,0,0,260.1,18C260.6,16.1,262.1,15.3,264.4,15.5Z" transform="translate(0 0)"/><path class="cls-2" d="M205.7,88a4.05,4.05,0,0,1-3.7-2.4l-.1-.2a4.37,4.37,0,0,1,2.2-5.3l.1-.1a94.54,94.54,0,0,0,21.2-11.5A70,70,0,0,0,240,54.4a271.7,271.7,0,0,0-26.5-16.9,3.75,3.75,0,0,1-1.5-5.1l.1-.2a3.81,3.81,0,0,1,5.1-1.4A196.34,196.34,0,0,1,245,47.2a120.43,120.43,0,0,0,13.7-29.5c.6-1.7,2.1-3.5,5.6-3.1h.2c2.6.9,3.7,2.9,3.1,5.7-2.8,9.5-8.1,20.2-15.8,31.9A182.37,182.37,0,0,1,271.9,69c2.2,2.2,2.2,4.9,0,7.4l-.2.2a5.13,5.13,0,0,1-6.5-.4c-5-5-11.2-10.6-18.5-16.6-10.1,12.1-23.1,21.5-38.8,28A8.51,8.51,0,0,1,205.7,88Zm-1.9-3.2c.5.9,1.3,1.7,3.6.8,15.7-6.5,28.7-15.9,38.6-28.2l.6-.8.8.6c7.7,6.3,14.2,12.1,19.4,17.3a3.16,3.16,0,0,0,3.9.3c1.4-1.7,1.4-3-.1-4.5A196.74,196.74,0,0,0,250,53.2l-.8-.6.5-.8c7.9-11.8,13.3-22.6,16-32.1.3-1.7-.2-2.8-1.7-3.3-2.3-.2-3.1.9-3.4,1.8A127.89,127.89,0,0,1,246.1,49l-.6.9-.9-.6a200.83,200.83,0,0,0-28.3-16.8,1.9,1.9,0,0,0-2.6.6,1.83,1.83,0,0,0,.7,2.6,314,314,0,0,1,27.5,17.6l1.1.7-.6.8a73.69,73.69,0,0,1-15.7,15.3,98.11,98.11,0,0,1-21.6,11.7A2.46,2.46,0,0,0,203.8,84.8Z" transform="translate(0 0)"/><path class="cls-2" d="M362.9,48.2c2.6,0,3.9,1.2,3.9,3.5s-1.3,3.5-3.9,3.5H312.6A33.65,33.65,0,0,1,301,53.4l-4.9-1.8q-2.4-1.8-1.8-4.2c.7-2.1,2-2.9,3.9-2.5l4.9,1.8a30.36,30.36,0,0,0,9.8,1.4l50,.1Z" transform="translate(0 0)"/><path class="cls-2" d="M362.9,56.2H312.6a35.06,35.06,0,0,1-11.9-1.8l-5.2-1.9c-2.5-1.8-2.5-3.9-2.1-5.3,1.2-3.5,3.7-3.5,5.1-3.2l5,1.8a28,28,0,0,0,9.5,1.4h49.9c3.1,0,4.9,1.6,4.9,4.5S366,56.2,362.9,56.2Zm-66.4-5.4,4.8,1.7a34,34,0,0,0,11.3,1.7h50.3c2.5,0,2.9-1.2,2.9-2.5s-.4-2.5-2.9-2.5H313a29.68,29.68,0,0,1-10.2-1.5l-4.9-1.8c-.9-.2-1.9-.2-2.6,1.8C295,48.6,295,49.7,296.5,50.8Z" transform="translate(0 0)"/><path class="cls-2" d="M414.4,15.5c.2-1.9,1.4-2.8,3.5-2.8,2.3.2,3.4,1.4,3.2,3.5l-1,9.1h27.8a10.2,10.2,0,0,1,7.7,3.2,8.75,8.75,0,0,1,2.5,6.3,189.87,189.87,0,0,1-4.6,41.8c-1.4,5.4-3.3,8.8-5.6,10.2q-2.1,1.8-6.3,1.8a35.92,35.92,0,0,1-8.1-1A70.21,70.21,0,0,1,420.1,83a3.06,3.06,0,0,1,2.1-5.7c7,2.8,12.7,4.3,16.9,4.6a6.42,6.42,0,0,0,4.9-1.8c1.4-.9,2.9-5.1,4.6-12.7,2.1-12.2,2.9-22.5,2.5-30.9-.2-3.3-1.9-4.9-4.9-4.9H419.5c-2.3,18.8-9,33.6-20,44.6a71,71,0,0,1-12.7,10.2c-1.9.7-3.3.5-4.2-.7a3.43,3.43,0,0,1,1-4.2A73.47,73.47,0,0,0,394.8,72c9.4-9.1,15.3-22.6,17.9-40.4H388.4c-1.6,0-2.5-.9-2.5-2.8,0-2.3.8-3.5,2.5-3.5h25Z" transform="translate(0 0)"/><path class="cls-2" d="M441.5,89.6a32,32,0,0,1-8.3-1.1,68.91,68.91,0,0,1-13.5-4.6l-.1-.1a4.15,4.15,0,0,1-1.8-5l.1-.2a4,4,0,0,1,4.5-2.3l.2.1c6.9,2.8,12.5,4.3,16.6,4.5a5.68,5.68,0,0,0,4.2-1.5l.2-.1c.5-.4,2-2.2,4.2-12,2.1-12,2.9-22.3,2.4-30.7-.2-2.8-1.4-4-3.9-4H420.5C417.8,51.2,411,66.1,400,77a72.29,72.29,0,0,1-12.8,10.3l-.2.1c-2.9,1.1-4.5,0-5.3-1l-.1-.2a4.35,4.35,0,0,1,1.3-5.4,85.92,85.92,0,0,0,11.2-9.4c9-8.8,14.8-21.8,17.5-38.7H388.5c-2.2,0-3.5-1.4-3.5-3.8,0-3.9,2.2-4.5,3.5-4.5h24.1l1-9c.3-2.4,1.9-3.7,4.5-3.7h.1a4.67,4.67,0,0,1,3.3,1.5,4.39,4.39,0,0,1,.8,3.1l-.9,8h26.7a11.32,11.32,0,0,1,8.4,3.5,9.65,9.65,0,0,1,2.8,7,192.33,192.33,0,0,1-4.6,42c-1.5,5.7-3.5,9.2-6,10.8A11.58,11.58,0,0,1,441.5,89.6Zm-21-7.5a74.45,74.45,0,0,0,13.1,4.5,28.77,28.77,0,0,0,7.8,1q3.9,0,5.7-1.5l.1-.1c2.1-1.3,3.8-4.5,5.2-9.6a194.83,194.83,0,0,0,4.5-41.6,7.31,7.31,0,0,0-2.2-5.6,9.51,9.51,0,0,0-7-2.9H418.8L420,16a1.94,1.94,0,0,0-.3-1.6,2.81,2.81,0,0,0-1.9-.8c-2,0-2.3,1-2.5,1.9l-1.2,10.7H388.2c-.5,0-1.5,0-1.5,2.5,0,1.7.7,1.8,1.5,1.8h25.4l-.2,1.1c-2.6,18-8.7,31.8-18.2,41a80.71,80.71,0,0,1-11.4,9.6,2.34,2.34,0,0,0-.8,2.9c.4.5,1.2.9,2.9.3a76.57,76.57,0,0,0,12.4-10c11.1-10.6,17.7-25.4,20-43.8l.1-.9H446c2.5,0,5.6,1,5.9,5.9.5,8.5-.4,19-2.5,31.2-2.2,10.1-3.8,12.5-4.9,13.3a7.82,7.82,0,0,1-5.6,2c-4.3-.2-10.1-1.8-17.1-4.6a2.08,2.08,0,0,0-2.3,1.1A2.23,2.23,0,0,0,420.5,82.1Z" transform="translate(0 0)"/><path class="cls-2" d="M547.5,48.2c2.6,0,3.9,1.2,3.9,3.5s-1.3,3.5-3.9,3.5H497.2a33.65,33.65,0,0,1-11.6-1.8l-4.9-1.8q-2.4-1.8-1.8-4.2c.7-2.1,2-2.9,3.9-2.5l4.9,1.8a30.36,30.36,0,0,0,9.8,1.4l50,.1Z" transform="translate(0 0)"/><path class="cls-2" d="M547.5,56.2H497.2a35.06,35.06,0,0,1-11.9-1.8l-5.2-1.9c-2.5-1.8-2.5-3.9-2.1-5.3,1.2-3.5,3.7-3.5,5.1-3.2l5,1.8a28.44,28.44,0,0,0,9.5,1.4h49.9c3.1,0,4.9,1.6,4.9,4.5S550.7,56.2,547.5,56.2Zm-66.3-5.4,4.8,1.7a34.46,34.46,0,0,0,11.3,1.7h50.3c2.5,0,2.9-1.2,2.9-2.5s-.3-2.5-2.9-2.5H497.7a29.68,29.68,0,0,1-10.2-1.5l-4.9-1.8c-.9-.2-1.9-.2-2.6,1.8C479.7,48.6,479.6,49.7,481.2,50.8Z" transform="translate(0 0)"/></svg>